/* XPM */
static char * toastXpm[] = {
"64 64 17 1",
" 	c None",
".	c #7B3100",
"+	c #6B3600",
"@	c #623D01",
"#	c #936410",
"$	c #9E6A01",
"%	c #A4681B",
"&	c #B96917",
"*	c #CD9A32",
"=	c #D49834",
"-	c #ECBC5C",
";	c #FEC560",
">	c #FCCA63",
",	c #FBCC73",
"'	c #FACF65",
")	c #F7E076",
"!	c #FFF297",
"                                                                ",
"                                                                ",
"                                                                ",
"                                                                ",
"                                                                ",
"                                                                ",
"                                                                ",
"                                                                ",
"                                                                ",
"                                                                ",
"                                                                ",
"                                                                ",
"                                                                ",
"                                                                ",
"                                                                ",
"                                 >>,                            ",
"                              ,,;;>',,                          ",
"                           !)>,,>*>*>>>,                        ",
"                         ,'-*>=;*>*'>*',,,                      ",
"                      ,,,*>*;*'*;*>*>>>*,;>                     ",
"                    !,,>=>=;==****>*>*>,-,>',                   ",
"                 !!!'''*=;==$***$****-*;,=;*>''                 ",
"               !!)'''''*******$*****>*>;=;=;>>''                ",
"            !!!)''**>******$*$*$*$******;=*;*>*>;,              ",
"          !!)')'''*>******$*$*$$$*$*******>*>*>>=,-,            ",
"         !)'''**>*>**'***#$$*$*$*$*$$**$*****>*>,,>>'           ",
"         !''''*'*>*****$$*$*$$$*$$*#$*$***>*'*'*,*'''')         ",
"        !)''>*'*>*'***$*#$*$#$#$$$$$*#*$*******>*'''''',        ",
"        !',*>>*>****$**$$$$$$$$$$$$$$*$**$**'***'*''''>',       ",
"        !,,>;*'*>*****$*$*$$$$$$#$#$*#*$*****'*>*>''''>>,,      ",
"        @!,>=;*'*>***$*$*$*$$$#$$$$$$$#*******>*;=>*''>,,,      ",
"        #+!;>''*'*****$*$$$$**#$$$*#*$*$*>*>*>*;==>''';,,,!     ",
"        +%+!''*'*'*'***#*$#$$$*$$*%$%*******'**>,,>''',,,,!     ",
"        %.&+!!''>*>******#**$*$*$**$*$*>*>*''''>,,,''',,,!$     ",
"        %&.&.%!''>*>**>********#*$*********>'''>,,,>,,*!!@#     ",
"        %&&.&.%!-*'>*>***'>**$*****$***>*'>>*''*>,*,!,!++$#     ",
"        +&&&.&.+$!>>*>>*>>*'*****$***;**>*''''''>,,!!++++@$     ",
"         .%.&&.%+!>>>>>*>*>*>*>*****;***>>>*'>'>!,!++++##$#     ",
"           .&.%.+$!!,>'>>*'>***>*;***>*>*''''>>!!!+++++#+#$     ",
"            +%&.$+$+!,**->>;;=;*;*>*;=>>'''>'!!@++++++####      ",
"             +&&.%+$+!,'''*>>>;;*>*;=>;,'',!!@@@++++%%%#        ",
"              &&&.&+%++!)>>>;>>>>>>>>>;>!!!@@@@@++####          ",
"               +&&.&.%%+$))''''>*->*'''!@@++++#++$##            ",
"                .&&&&..&.$+!))''*,''!!@@@#++#$+%##              ",
"                  +&&&&.&.$+!!',))!!@@#+%+#+####                ",
"                   +.&&&.&.$+$!!!!#@#++%+%+###                  ",
"                      +%&&&&&..&++%%++%+%%##                    ",
"                       +++&&&&&.&%.%%%+%%#                      ",
"                          .&&&.&.%%+%+##                        ",
"                           .&&&.%.++##                          ",
"                            ++%%+%+@                            ",
"                              +++@                              ",
"                                                                ",
"                                                                ",
"                                                                ",
"                                                                ",
"                                                                ",
"                                                                ",
"                                                                ",
"                                                                ",
"                                                                ",
"                                                                ",
"                                                                ",
"                                                                "};
